<svg width="865" height="472" viewBox="0 0 865 472" fill="none" xmlns="http://www.w3.org/2000/svg">
<path d="M221.818 0C226.789 3.61471e-05 230.818 4.02946 230.818 9V462.532C230.818 467.503 226.789 471.532 221.818 471.532H219C214.029 471.532 210 467.503 210 462.532V9C210 4.02944 214.029 3.54554e-07 219 0H221.818ZM305.818 57.0996C310.789 57.0996 314.818 61.1291 314.818 66.0996V405.433C314.818 410.403 310.789 414.433 305.818 414.433H303C298.029 414.433 294 410.403 294 405.433V66.0996C294 61.1291 298.029 57.0996 303 57.0996H305.818ZM263.818 76.1328C268.789 76.1328 272.818 80.1623 272.818 85.1328V386.399C272.818 391.37 268.789 395.399 263.818 395.399H261C256.029 395.399 252 391.37 252 386.399V85.1328C252 80.1623 256.029 76.1328 261 76.1328H263.818ZM137.818 128.935C142.789 128.935 146.818 132.964 146.818 137.935V333.598C146.818 338.568 142.789 342.598 137.818 342.598H135C130.029 342.598 126 338.568 126 333.598V137.935C126 132.964 130.029 128.935 135 128.935H137.818ZM389.818 128.935C394.789 128.935 398.818 132.964 398.818 137.935V333.598C398.818 338.568 394.789 342.598 389.818 342.598H387C382.029 342.598 378 338.568 378 333.598V137.935C378 132.964 382.029 128.935 387 128.935H389.818ZM179.818 155.336C184.789 155.336 188.818 159.365 188.818 164.336V307.197C188.818 312.168 184.789 316.197 179.818 316.197H177C172.03 316.197 168 312.168 168 307.197V164.336C168 159.365 172.029 155.336 177 155.336H179.818ZM561.818 155.336C566.789 155.336 570.818 159.365 570.818 164.336V307.197C570.818 312.168 566.789 316.197 561.818 316.197H559C554.03 316.197 550 312.168 550 307.197V164.336C550 159.365 554.029 155.336 559 155.336H561.818ZM347.818 161.476C352.789 161.476 356.818 165.505 356.818 170.476V301.058C356.818 306.028 352.789 310.058 347.818 310.058H345C340.03 310.058 336 306.028 336 301.058V170.476C336 165.505 340.029 161.476 345 161.476H347.818ZM519.818 173.141C524.789 173.141 528.818 177.17 528.818 182.141V289.392C528.818 294.362 524.789 298.392 519.818 298.392H517C512.029 298.392 508 294.362 508 289.392V182.141C508 177.17 512.03 173.141 517 173.141H519.818ZM645.818 181.736C650.789 181.736 654.818 185.766 654.818 190.736V280.796C654.818 285.766 650.789 289.796 645.818 289.796H643C638.029 289.796 634 285.766 634 280.796V190.736C634 185.766 638.029 181.736 643 181.736H645.818ZM53.8184 189.718C58.7888 189.718 62.8182 193.747 62.8184 198.718V272.814C62.8183 277.785 58.7889 281.814 53.8184 281.814H51C46.0295 281.814 42.0001 277.785 42 272.814V198.718C42.0002 193.747 46.0296 189.718 51 189.718H53.8184ZM603.818 198.313C608.789 198.314 612.818 202.343 612.818 207.313V264.219C612.818 269.189 608.789 273.219 603.818 273.219H601C596.029 273.219 592 269.189 592 264.219V207.313C592 202.343 596.03 198.313 601 198.313H603.818ZM95.8184 206.909C100.789 206.909 104.818 210.939 104.818 215.909V255.623C104.818 260.594 100.789 264.623 95.8184 264.623H93C88.0294 264.623 84 260.594 84 255.623V215.909C84.0001 210.939 88.0295 206.909 93 206.909H95.8184ZM729.818 206.909C734.789 206.909 738.818 210.939 738.818 215.909V255.623C738.818 260.594 734.789 264.623 729.818 264.623H727C722.029 264.623 718 260.594 718 255.623V215.909C718 210.939 722.03 206.909 727 206.909H729.818ZM478.148 214.277C483.119 214.278 487.148 218.307 487.148 223.277V248.256C487.148 253.226 483.119 257.256 478.148 257.256H475.33C470.36 257.256 466.33 253.226 466.33 248.256V223.277C466.33 218.307 470.36 214.277 475.33 214.277H478.148ZM855.818 214.277C860.789 214.277 864.818 218.307 864.818 223.277V248.256C864.818 253.226 860.789 257.256 855.818 257.256H853C848.03 257.256 844 253.226 844 248.256V223.277C844 218.307 848.029 214.277 853 214.277H855.818ZM11.8184 221.031C16.7889 221.031 20.8184 225.061 20.8184 230.031V241.502C20.8182 246.472 16.7888 250.502 11.8184 250.502H9C4.02953 250.502 0.00015459 246.472 0 241.502V230.031C0 225.061 4.02944 221.031 9 221.031H11.8184ZM687.818 221.031C692.789 221.031 696.818 225.061 696.818 230.031V241.502C696.818 246.472 692.789 250.502 687.818 250.502H685C680.03 250.502 676 246.472 676 241.502V230.031C676 225.061 680.029 221.031 685 221.031H687.818ZM771.818 221.031C776.789 221.031 780.818 225.061 780.818 230.031V241.502C780.818 246.472 776.789 250.502 771.818 250.502H769C764.03 250.502 760 246.472 760 241.502V230.031C760 225.061 764.029 221.031 769 221.031H771.818ZM814.837 227.784C819.245 227.784 822.818 231.359 822.818 235.767C822.818 240.175 819.245 243.748 814.837 243.748H809.981C805.574 243.748 802 240.175 802 235.767C802 231.359 805.573 227.784 809.981 227.784H814.837Z" fill="#D9D9D9"/>
</svg>
