<svg width="865" height="472" viewBox="0 0 865 472" fill="none" xmlns="http://www.w3.org/2000/svg">
<path d="M646 0C650.971 3.89794e-07 655 4.02944 655 9V462.532C655 467.503 650.971 471.532 646 471.532H643.182C638.211 471.532 634.182 467.503 634.182 462.532V9C634.182 4.02948 638.211 6.2944e-05 643.182 0H646ZM562 57.0996C566.971 57.0996 571 61.129 571 66.0996V405.433C571 410.403 566.971 414.433 562 414.433H559.182C554.211 414.433 550.182 410.403 550.182 405.433V66.0996C550.182 61.1291 554.211 57.0997 559.182 57.0996H562ZM604 76.1328C608.971 76.1328 613 80.1622 613 85.1328V386.399C613 391.37 608.971 395.399 604 395.399H601.182C596.211 395.399 592.182 391.37 592.182 386.399V85.1328C592.182 80.1623 596.211 76.1329 601.182 76.1328H604ZM478.148 128.935C483.119 128.935 487.148 132.964 487.148 137.935V333.598C487.148 338.568 483.119 342.597 478.148 342.598H475.33C470.36 342.598 466.33 338.568 466.33 333.598V137.935C466.33 132.964 470.36 128.935 475.33 128.935H478.148ZM730 128.935C734.971 128.935 739 132.964 739 137.935V333.598C739 338.568 734.971 342.598 730 342.598H727.182C722.211 342.598 718.182 338.568 718.182 333.598V137.935C718.182 132.964 722.211 128.935 727.182 128.935H730ZM306 155.335C310.97 155.335 315 159.365 315 164.335V307.196C315 312.167 310.971 316.196 306 316.196H303.182C298.211 316.196 294.182 312.167 294.182 307.196V164.335C294.182 159.365 298.211 155.335 303.182 155.335H306ZM688 155.335C692.97 155.335 697 159.365 697 164.335V307.196C697 312.167 692.971 316.196 688 316.196H685.182C680.211 316.196 676.182 312.167 676.182 307.196V164.335C676.182 159.365 680.211 155.335 685.182 155.335H688ZM520 161.475C524.97 161.475 529 165.504 529 170.475V301.057C529 306.027 524.971 310.057 520 310.057H517.182C512.211 310.057 508.182 306.027 508.182 301.057V170.475C508.182 165.504 512.211 161.475 517.182 161.475H520ZM348 173.141C352.971 173.141 357 177.17 357 182.141V289.392C357 294.362 352.97 298.392 348 298.392H345.182C340.211 298.392 336.182 294.362 336.182 289.392V182.141C336.182 177.17 340.211 173.141 345.182 173.141H348ZM222 181.736C226.971 181.736 231 185.766 231 190.736V280.796C231 285.766 226.97 289.796 222 289.796H219.182C214.211 289.796 210.182 285.766 210.182 280.796V190.736C210.182 185.766 214.211 181.736 219.182 181.736H222ZM814 189.718C818.971 189.718 823 193.747 823 198.718V272.814C823 277.785 818.97 281.814 814 281.814H811.182C806.211 281.814 802.182 277.785 802.182 272.814V198.718C802.182 193.747 806.211 189.718 811.182 189.718H814ZM264 198.313C268.971 198.313 273 202.343 273 207.313V264.219C273 269.189 268.97 273.219 264 273.219H261.182C256.211 273.219 252.182 269.189 252.182 264.219V207.313C252.182 202.343 256.211 198.314 261.182 198.313H264ZM138 206.909C142.971 206.909 147 210.939 147 215.909V255.623C147 260.593 142.97 264.623 138 264.623H135.182C130.211 264.623 126.182 260.593 126.182 255.623V215.909C126.182 210.939 130.211 206.909 135.182 206.909H138ZM772 206.909C776.971 206.909 781 210.939 781 215.909V255.623C781 260.593 776.97 264.623 772 264.623H769.182C764.211 264.623 760.182 260.593 760.182 255.623V215.909C760.182 210.939 764.211 206.909 769.182 206.909H772ZM11.8184 214.276C16.7888 214.276 20.8181 218.306 20.8184 223.276V248.255C20.8184 253.225 16.7889 257.255 11.8184 257.255H9C4.02948 257.255 -4.8442e-07 253.225 0 248.255V223.276C0.000217565 218.306 4.02962 214.276 9 214.276H11.8184ZM390 214.276C394.97 214.276 399 218.306 399 223.276V248.255C399 253.225 394.971 257.255 390 257.255H387.182C382.211 257.255 378.182 253.225 378.182 248.255V223.276C378.182 218.306 382.211 214.276 387.182 214.276H390ZM96 221.03C100.97 221.03 105 225.06 105 230.03V241.501C105 246.472 100.971 250.501 96 250.501H93.1816C88.2111 250.501 84.1816 246.472 84.1816 241.501V230.03C84.1818 225.06 88.2112 221.03 93.1816 221.03H96ZM180 221.03C184.97 221.03 189 225.06 189 230.03V241.501C189 246.472 184.971 250.501 180 250.501H177.182C172.211 250.501 168.182 246.472 168.182 241.501V230.03C168.182 225.06 172.211 221.03 177.182 221.03H180ZM856 221.03C860.97 221.03 865 225.06 865 230.03V241.501C865 246.472 860.971 250.501 856 250.501H853.182C848.211 250.501 844.182 246.472 844.182 241.501V230.03C844.182 225.06 848.211 221.03 853.182 221.03H856ZM55.0186 227.784C59.4265 227.784 62.9999 231.358 63 235.766C63 240.174 59.4266 243.747 55.0186 243.747H50.1631C45.7551 243.747 42.1816 240.174 42.1816 235.766C42.1818 231.358 45.7552 227.784 50.1631 227.784H55.0186Z" fill="#D9D9D9"/>
</svg>
