<?xml version="1.0" encoding="UTF-8"?>
<svg xmlns="http://www.w3.org/2000/svg" viewBox="0 0 22 22" width="22" height="22">
  <defs>
    <mask id="sfsym-m0" maskUnits="userSpaceOnUse" x="0" y="0" width="22" height="22">
      <rect x="0" y="0" width="22" height="22" fill="white"/>
      <path fill="black" d="M13.9935 18.7407 C15.1489 18.7407 16.0942 17.7954 16.0942 16.64 C16.0942 15.4846 15.1489 14.5393 13.9935 14.5393 C12.8381 14.5393 11.884 15.4846 11.884 16.64 C11.884 17.7954 12.8381 18.7407 13.9935 18.7407 Z"/>
      <path fill="black" d="M7.8139 13.4014 C8.9693 13.4014 9.9146 12.4474 9.9146 11.292 C9.9146 10.1366 8.9693 9.1913 7.8139 9.1913 C6.6586 9.1913 5.7133 10.1366 5.7133 11.292 C5.7133 12.4474 6.6586 13.4014 7.8139 13.4014 Z"/>
      <path fill="black" d="M13.9935 8.0447 C15.1489 8.0447 16.0942 7.0993 16.0942 5.944 C16.0942 4.7886 15.1489 3.8345 13.9935 3.8345 C12.8381 3.8345 11.884 4.7886 11.884 5.944 C11.884 7.0993 12.8381 8.0447 13.9935 8.0447 Z"/>
    </mask>
    <mask id="sfsym-m1" maskUnits="userSpaceOnUse" x="0" y="0" width="22" height="22">
      <rect x="0" y="0" width="22" height="22" fill="white"/>
      <path fill="black" d="M7.8139 13.4014 C8.9693 13.4014 9.9146 12.4474 9.9146 11.292 C9.9146 10.1366 8.9693 9.1913 7.8139 9.1913 C6.6586 9.1913 5.7133 10.1366 5.7133 11.292 C5.7133 12.4474 6.6586 13.4014 7.8139 13.4014 Z"/>
      <path fill="black" d="M13.9935 8.0447 C15.1489 8.0447 16.0942 7.0993 16.0942 5.944 C16.0942 4.7886 15.1489 3.8345 13.9935 3.8345 C12.8381 3.8345 11.884 4.7886 11.884 5.944 C11.884 7.0993 12.8381 8.0447 13.9935 8.0447 Z"/>
    </mask>
    <mask id="sfsym-m2" maskUnits="userSpaceOnUse" x="0" y="0" width="22" height="22">
      <rect x="0" y="0" width="22" height="22" fill="white"/>
      <path fill="black" d="M13.9935 8.0447 C15.1489 8.0447 16.0942 7.0993 16.0942 5.944 C16.0942 4.7886 15.1489 3.8345 13.9935 3.8345 C12.8381 3.8345 11.884 4.7886 11.884 5.944 C11.884 7.0993 12.8381 8.0447 13.9935 8.0447 Z"/>
    </mask>
  </defs>
  <path data-layer="monochrome-0" fill="currentColor" mask="url(#sfsym-m0)" d="M2.7373 17.3402 L19.0001 17.3402 C19.359 17.3402 19.6741 17.0339 19.6741 16.64 C19.6741 16.2461 19.359 15.931 19.0001 15.931 L2.7373 15.931 C2.3434 15.931 2.037 16.2461 2.037 16.64 C2.037 17.0339 2.3434 17.3402 2.7373 17.3402 Z"/>
  <path data-layer="monochrome-0" fill="currentColor" mask="url(#sfsym-m1)" d="M13.9935 18.7407 C15.1489 18.7407 16.0942 17.7954 16.0942 16.64 C16.0942 15.4846 15.1489 14.5393 13.9935 14.5393 C12.8381 14.5393 11.884 15.4846 11.884 16.64 C11.884 17.7954 12.8381 18.7407 13.9935 18.7407 Z M13.9935 17.6641 C13.4158 17.6641 12.9694 17.2089 12.9694 16.64 C12.9694 16.0535 13.4158 15.6159 13.9935 15.6159 C14.5712 15.6159 15.0176 16.0535 15.0176 16.64 C15.0176 17.2089 14.5712 17.6641 13.9935 17.6641 Z"/>
  <path data-layer="monochrome-0" fill="currentColor" mask="url(#sfsym-m1)" d="M2.7373 11.9922 L19.0001 11.9922 C19.359 11.9922 19.6741 11.6859 19.6741 11.292 C19.6741 10.8981 19.359 10.583 19.0001 10.583 L2.7373 10.583 C2.3434 10.583 2.037 10.8981 2.037 11.292 C2.037 11.6859 2.3434 11.9922 2.7373 11.9922 Z"/>
  <path data-layer="monochrome-0" fill="currentColor" mask="url(#sfsym-m2)" d="M7.8139 13.4014 C8.9693 13.4014 9.9146 12.4474 9.9146 11.292 C9.9146 10.1366 8.9693 9.1913 7.8139 9.1913 C6.6586 9.1913 5.7133 10.1366 5.7133 11.292 C5.7133 12.4474 6.6586 13.4014 7.8139 13.4014 Z M7.8139 12.3161 C7.245 12.3161 6.7899 11.8609 6.7899 11.292 C6.7899 10.7143 7.245 10.2679 7.8139 10.2679 C8.3916 10.2679 8.838 10.7143 8.838 11.292 C8.838 11.8609 8.3916 12.3161 7.8139 12.3161 Z"/>
  <path data-layer="monochrome-0" fill="currentColor" mask="url(#sfsym-m2)" d="M2.7373 6.6529 L19.0001 6.6529 C19.359 6.6529 19.6741 6.3378 19.6741 5.944 C19.6741 5.5501 19.359 5.2437 19.0001 5.2437 L2.7373 5.2437 C2.3434 5.2437 2.037 5.5501 2.037 5.944 C2.037 6.3378 2.3434 6.6529 2.7373 6.6529 Z"/>
  <path data-layer="monochrome-0" fill="currentColor" d="M13.9935 8.0447 C15.1489 8.0447 16.0942 7.0993 16.0942 5.944 C16.0942 4.7886 15.1489 3.8345 13.9935 3.8345 C12.8381 3.8345 11.884 4.7886 11.884 5.944 C11.884 7.0993 12.8381 8.0447 13.9935 8.0447 Z M13.9935 6.968 C13.4158 6.968 12.9694 6.5129 12.9694 5.9352 C12.9694 5.3575 13.4158 4.9111 13.9935 4.9111 C14.5712 4.9111 15.0176 5.3575 15.0176 5.9352 C15.0176 6.5129 14.5712 6.968 13.9935 6.968 Z"/>
</svg>
