<?xml version="1.0" encoding="UTF-8"?>
<svg xmlns="http://www.w3.org/2000/svg" viewBox="0 0 22 22" width="22" height="22">
  <path data-layer="monochrome-0" fill="currentColor" d="M2.037 11.3198 C2.037 13.9544 2.7985 16.8604 4.0852 19.1186 C4.304 19.495 4.7154 19.6 5.1093 19.3812 C5.4769 19.1799 5.582 18.7685 5.3544 18.3571 C4.1815 16.2214 3.525 13.6743 3.525 11.3198 C3.525 6.4619 6.4923 3.2234 10.9475 3.2234 C15.3939 3.2234 18.3699 6.4619 18.3699 11.3198 C18.3699 13.6743 17.7047 16.2214 16.5318 18.3571 C16.3042 18.7685 16.4093 19.1799 16.7769 19.3812 C17.1708 19.6 17.5909 19.495 17.801 19.1186 C19.0877 16.8604 19.8579 13.9544 19.8579 11.3198 C19.8579 5.5604 16.3042 1.7354 10.9475 1.7354 C5.582 1.7354 2.037 5.5604 2.037 11.3198 Z M4.7767 18.8998 C5.0655 19.9064 5.9233 20.3703 6.9387 20.0814 C7.9452 19.7926 8.4179 18.9173 8.1203 17.9107 L6.8686 13.6393 C6.5798 12.6415 5.722 12.1688 4.7067 12.4577 C3.7001 12.7553 3.2274 13.6218 3.525 14.6371 Z M17.1095 18.8998 L18.3612 14.6371 C18.6588 13.6131 18.1949 12.7553 17.1795 12.4577 C16.1642 12.1688 15.3152 12.6415 15.0176 13.6393 L13.7659 17.9107 C13.4683 18.9261 13.941 19.7926 14.9475 20.0814 C15.9716 20.3703 16.8207 19.9064 17.1095 18.8998 Z"/>
</svg>
