<?xml version="1.0" encoding="UTF-8"?>
<svg xmlns="http://www.w3.org/2000/svg" viewBox="0 0 22 22" width="22" height="22">
  <!-- Rising amplitude bars — fade-in at a glance -->
  <path fill="currentColor" d="M3.2 15.85 C3.2 16.25 3.5 16.55 3.9 16.55 C4.3 16.55 4.6 16.25 4.6 15.85 L4.6 14.55 C4.6 14.15 4.3 13.85 3.9 13.85 C3.5 13.85 3.2 14.15 3.2 14.55 Z"/>
  <path fill="currentColor" d="M6.35 15.85 C6.35 16.25 6.65 16.55 7.05 16.55 C7.45 16.55 7.75 16.25 7.75 15.85 L7.75 12.35 C7.75 11.95 7.45 11.65 7.05 11.65 C6.65 11.65 6.35 11.95 6.35 12.35 Z"/>
  <path fill="currentColor" d="M9.5 15.85 C9.5 16.25 9.8 16.55 10.2 16.55 C10.6 16.55 10.9 16.25 10.9 15.85 L10.9 9.85 C10.9 9.45 10.6 9.15 10.2 9.15 C9.8 9.15 9.5 9.45 9.5 9.85 Z"/>
  <path fill="currentColor" d="M12.65 15.85 C12.65 16.25 12.95 16.55 13.35 16.55 C13.75 16.55 14.05 16.25 14.05 15.85 L14.05 7.15 C14.05 6.75 13.75 6.45 13.35 6.45 C12.95 6.45 12.65 6.75 12.65 7.15 Z"/>
  <path fill="currentColor" d="M15.8 15.85 C15.8 16.25 16.1 16.55 16.5 16.55 C16.9 16.55 17.2 16.25 17.2 15.85 L17.2 4.55 C17.2 4.15 16.9 3.85 16.5 3.85 C16.1 3.85 15.8 4.15 15.8 4.55 Z"/>
  <path fill="currentColor" d="M2.85 18.55 L19.15 18.55 C19.55 18.55 19.85 18.25 19.85 17.85 C19.85 17.45 19.55 17.15 19.15 17.15 L2.85 17.15 C2.45 17.15 2.15 17.45 2.15 17.85 C2.15 18.25 2.45 18.55 2.85 18.55 Z"/>
</svg>
